<svg width="42" height="21" viewBox="0 0 42 21" fill="none" xmlns="http://www.w3.org/2000/svg">
    <g clip-path="url(#clip0_1965_4297)">
        <path d="M0.953369 20.5001H7.62405L8.98542 16.8188L5.92235 10.5469L0.953369 20.5001Z"
            fill="white" />
        <path
            d="M18.6511 15.5237L11.2316 0.59375L8.98535 5.70673L15.9964 20.5003H21.0468L18.6511 15.5237Z"
            fill="white" />
        <path fill-rule="evenodd" clip-rule="evenodd"
            d="M31.0469 20.5C36.5697 20.5 41.0469 16.0228 41.0469 10.5C41.0469 4.97715 36.5697 0.5 31.0469 0.5C25.5241 0.5 21.0469 4.97715 21.0469 10.5C21.0469 16.0228 25.5241 20.5 31.0469 20.5ZM31.0469 16.5748C34.4019 16.5748 37.1216 13.855 37.1216 10.5C37.1216 7.145 34.4019 4.42523 31.0469 4.42523C27.6918 4.42523 24.9721 7.145 24.9721 10.5C24.9721 13.855 27.6918 16.5748 31.0469 16.5748Z"
            fill="white" />
    </g>
    <defs>
        <clipPath id="clip0_1965_4297">
            <rect width="40.1003" height="20" fill="white" transform="translate(0.949951 0.5)" />
        </clipPath>
    </defs>
</svg>
    